<svg xmlns="http://www.w3.org/2000/svg" width="48" height="48" viewBox="0 0 48 48" fill="none">
  <circle cx="24" cy="24" r="24" fill="#ffffff"/>
  <path d="M14 16c0-1.1.9-2 2-2h16c1.1 0 2 .9 2 2v18c0 .6-.3 1.1-.8 1.4l-8 4.6c-.5.3-1.1.3-1.6 0l-8-4.6c-.5-.3-.8-.8-.8-1.4V16z" fill="#6b21a8"/>
  <path d="M18 14h12v2H18z" fill="#9333ea"/>
  <path d="M20 20h8v1.5H20zm0 4h8v1.5H20zm0 4h5.5v1.5H20z" fill="#f3e8ff"/>
  <path d="M30 14c2 0 3.5 1.2 3.5 3.5S32 21 30 21" stroke="#9333ea" stroke-width="1.5" fill="none"/>
</svg>
